<svg width="32" height="32" viewBox="0 0 32 32" fill="none" xmlns="http://www.w3.org/2000/svg">
<g clip-path="url(#clip0_236_230)">
<path d="M12.9533 16.0001C14.488 16.0001 15.62 14.8681 15.62 13.3334C15.62 11.7987 14.488 10.6667 12.9533 10.6667C11.4187 10.6667 10.2867 11.7987 10.2867 13.3334C10.2867 14.8681 11.4173 16.0001 12.9533 16.0001Z" fill="#555555"/>
<g filter="url(#filter0_d_236_230)">
<path d="M26.6667 5.33325H5.33333C3.86266 5.33325 2.66666 6.45459 2.66666 7.83325V24.1666C2.66666 25.5453 3.86266 26.6666 5.33333 26.6666H26.6667C28.1373 26.6666 29.3333 25.5453 29.3333 24.1666V7.83325C29.3333 6.45459 28.1373 5.33325 26.6667 5.33325ZM26.6667 23.9999L5.33333 23.9853V7.99992L26.6667 8.01459V23.9999Z" fill="#555555"/>
</g>
<path d="M18.6667 12H24V14.6667H18.6667V12ZM20 17.3333H24V20H20V17.3333ZM17.9067 20.7147C17.9067 18.8827 15.672 17 12.9533 17C10.2347 17 8 18.8827 8 20.7147V21.3333H17.9067V20.7147Z" fill="#555555"/>
</g>
<defs>
<filter id="filter0_d_236_230" x="-1.33334" y="5.33325" width="34.6667" height="29.3333" filterUnits="userSpaceOnUse" color-interpolation-filters="sRGB">
<feFlood flood-opacity="0" result="BackgroundImageFix"/>
<feColorMatrix in="SourceAlpha" type="matrix" values="0 0 0 0 0 0 0 0 0 0 0 0 0 0 0 0 0 0 127 0" result="hardAlpha"/>
<feOffset dy="4"/>
<feGaussianBlur stdDeviation="2"/>
<feComposite in2="hardAlpha" operator="out"/>
<feColorMatrix type="matrix" values="0 0 0 0 0 0 0 0 0 0 0 0 0 0 0 0 0 0 0.25 0"/>
<feBlend mode="normal" in2="BackgroundImageFix" result="effect1_dropShadow_236_230"/>
<feBlend mode="normal" in="SourceGraphic" in2="effect1_dropShadow_236_230" result="shape"/>
</filter>
<clipPath id="clip0_236_230">
<rect width="32" height="32" fill="white"/>
</clipPath>
</defs>
</svg>
