<svg width="28" height="28" viewBox="0 0 28 28" fill="none" xmlns="http://www.w3.org/2000/svg">
<path d="M14 2.33325C12.8463 2.33325 11.7185 2.67537 10.7592 3.31635C9.79989 3.95732 9.05221 4.86836 8.6107 5.93427C8.16919 7.00017 8.05367 8.17306 8.27875 9.30461C8.50383 10.4362 9.0594 11.4756 9.87521 12.2914C10.691 13.1072 11.7304 13.6628 12.862 13.8878C13.9935 14.1129 15.1664 13.9974 16.2323 13.5559C17.2982 13.1144 18.2093 12.3667 18.8502 11.4074C19.4912 10.4481 19.8333 9.32031 19.8333 8.16659C19.8333 6.61949 19.2188 5.13576 18.1248 4.0418C17.0308 2.94783 15.5471 2.33325 14 2.33325ZM14 11.6666C13.3078 11.6666 12.6311 11.4613 12.0555 11.0767C11.4799 10.6921 11.0313 10.1455 10.7664 9.50598C10.5015 8.86644 10.4322 8.1627 10.5673 7.48377C10.7023 6.80484 11.0356 6.1812 11.5251 5.69171C12.0146 5.20223 12.6383 4.86889 13.3172 4.73384C13.9961 4.59879 14.6999 4.6681 15.3394 4.93301C15.9789 5.19791 16.5256 5.64652 16.9101 6.22209C17.2947 6.79766 17.5 7.47435 17.5 8.16659C17.5 9.09484 17.1313 9.98508 16.4749 10.6415C15.8185 11.2978 14.9283 11.6666 14 11.6666ZM24.5 24.4999V23.3333C24.5 21.1673 23.6396 19.0901 22.108 17.5585C20.5765 16.027 18.4993 15.1666 16.3333 15.1666H11.6667C9.50073 15.1666 7.42351 16.027 5.89196 17.5585C4.36041 19.0901 3.5 21.1673 3.5 23.3333V24.4999H5.83333V23.3333C5.83333 21.7862 6.44791 20.3024 7.54188 19.2085C8.63584 18.1145 10.1196 17.4999 11.6667 17.4999H16.3333C17.8804 17.4999 19.3642 18.1145 20.4581 19.2085C21.5521 20.3024 22.1667 21.7862 22.1667 23.3333V24.4999H24.5Z" fill="#555555"/>
</svg>
